<mxfile host="app.diagrams.net" agent="Mozilla/5.0 (Macintosh; Intel Mac OS X 10_15_7) AppleWebKit/605.1.15 (KHTML, like Gecko) Version/17.4 Safari/605.1.15" version="24.7.17">
  <diagram id="R2lEEEUBdFMjLlhIrx00" name="Page-1">
    <mxGraphModel dx="1845" dy="2739" grid="1" gridSize="10" guides="1" tooltips="1" connect="1" arrows="1" fold="1" page="1" pageScale="1" pageWidth="850" pageHeight="1100" math="0" shadow="0" extFonts="Permanent Marker^https://fonts.googleapis.com/css?family=Permanent+Marker">
      <root>
        <mxCell id="0" />
        <mxCell id="1" parent="0" />
        <mxCell id="CXuEt58X6KqpJVew96X_-1" value="person" style="whiteSpace=wrap;html=1;align=center;" vertex="1" parent="1">
          <mxGeometry x="353" y="-1151" width="100" height="40" as="geometry" />
        </mxCell>
        <mxCell id="CXuEt58X6KqpJVew96X_-2" value="vendor" style="whiteSpace=wrap;html=1;align=center;" vertex="1" parent="1">
          <mxGeometry x="177.5" y="-964" width="100" height="40" as="geometry" />
        </mxCell>
        <mxCell id="CXuEt58X6KqpJVew96X_-3" value="Customer" style="whiteSpace=wrap;html=1;align=center;" vertex="1" parent="1">
          <mxGeometry x="523" y="-959" width="100" height="42" as="geometry" />
        </mxCell>
        <mxCell id="CXuEt58X6KqpJVew96X_-4" value="Payment" style="whiteSpace=wrap;html=1;align=center;" vertex="1" parent="1">
          <mxGeometry x="1004" y="-629" width="100" height="40" as="geometry" />
        </mxCell>
        <mxCell id="CXuEt58X6KqpJVew96X_-5" value="order" style="whiteSpace=wrap;html=1;align=center;" vertex="1" parent="1">
          <mxGeometry x="634" y="-630" width="100" height="40" as="geometry" />
        </mxCell>
        <mxCell id="CXuEt58X6KqpJVew96X_-6" value="product" style="whiteSpace=wrap;html=1;align=center;" vertex="1" parent="1">
          <mxGeometry x="132" y="-630" width="100" height="40" as="geometry" />
        </mxCell>
        <mxCell id="CXuEt58X6KqpJVew96X_-8" value="CID" style="ellipse;whiteSpace=wrap;html=1;align=center;fontStyle=4;" vertex="1" parent="1">
          <mxGeometry x="583" y="-1009" width="70" height="27" as="geometry" />
        </mxCell>
        <mxCell id="CXuEt58X6KqpJVew96X_-9" value="VID" style="ellipse;whiteSpace=wrap;html=1;align=center;fontStyle=4;" vertex="1" parent="1">
          <mxGeometry x="72.5" y="-983" width="80" height="30" as="geometry" />
        </mxCell>
        <mxCell id="CXuEt58X6KqpJVew96X_-10" value="Name" style="ellipse;whiteSpace=wrap;html=1;align=center;" vertex="1" parent="1">
          <mxGeometry x="267.5" y="-1210" width="75" height="40" as="geometry" />
        </mxCell>
        <mxCell id="CXuEt58X6KqpJVew96X_-11" value="Email" style="ellipse;whiteSpace=wrap;html=1;align=center;" vertex="1" parent="1">
          <mxGeometry x="373" y="-1220" width="80" height="30" as="geometry" />
        </mxCell>
        <mxCell id="CXuEt58X6KqpJVew96X_-12" value="Phone" style="ellipse;whiteSpace=wrap;html=1;align=center;" vertex="1" parent="1">
          <mxGeometry x="460" y="-1220" width="80" height="40" as="geometry" />
        </mxCell>
        <mxCell id="CXuEt58X6KqpJVew96X_-13" value="" style="endArrow=none;html=1;rounded=0;entryX=0.87;entryY=0.008;entryDx=0;entryDy=0;exitX=0.292;exitY=0.963;exitDx=0;exitDy=0;exitPerimeter=0;entryPerimeter=0;" edge="1" parent="1" source="CXuEt58X6KqpJVew96X_-12" target="CXuEt58X6KqpJVew96X_-1">
          <mxGeometry relative="1" as="geometry">
            <mxPoint x="300" y="-912" as="sourcePoint" />
            <mxPoint x="460" y="-912" as="targetPoint" />
          </mxGeometry>
        </mxCell>
        <mxCell id="CXuEt58X6KqpJVew96X_-14" value="" style="endArrow=none;html=1;rounded=0;entryX=0.588;entryY=1.067;entryDx=0;entryDy=0;entryPerimeter=0;exitX=0.5;exitY=0;exitDx=0;exitDy=0;" edge="1" parent="1" source="CXuEt58X6KqpJVew96X_-1" target="CXuEt58X6KqpJVew96X_-11">
          <mxGeometry relative="1" as="geometry">
            <mxPoint x="300" y="-912" as="sourcePoint" />
            <mxPoint x="460" y="-912" as="targetPoint" />
          </mxGeometry>
        </mxCell>
        <mxCell id="CXuEt58X6KqpJVew96X_-15" value="" style="endArrow=none;html=1;rounded=0;exitX=1;exitY=1;exitDx=0;exitDy=0;entryX=0;entryY=0;entryDx=0;entryDy=0;" edge="1" parent="1" source="CXuEt58X6KqpJVew96X_-10" target="CXuEt58X6KqpJVew96X_-1">
          <mxGeometry relative="1" as="geometry">
            <mxPoint x="280" y="-922" as="sourcePoint" />
            <mxPoint x="280" y="-912" as="targetPoint" />
          </mxGeometry>
        </mxCell>
        <mxCell id="CXuEt58X6KqpJVew96X_-16" value="" style="shape=flexArrow;endArrow=classic;html=1;rounded=0;entryX=0.57;entryY=1.071;entryDx=0;entryDy=0;entryPerimeter=0;" edge="1" parent="1">
          <mxGeometry width="50" height="50" relative="1" as="geometry">
            <mxPoint x="405" y="-1080" as="sourcePoint" />
            <mxPoint x="405" y="-1108.16" as="targetPoint" />
          </mxGeometry>
        </mxCell>
        <mxCell id="CXuEt58X6KqpJVew96X_-19" value="ProductLIst" style="ellipse;whiteSpace=wrap;html=1;align=center;" vertex="1" parent="1">
          <mxGeometry x="117.5" y="-1034" width="70" height="39" as="geometry" />
        </mxCell>
        <mxCell id="CXuEt58X6KqpJVew96X_-20" value="" style="endArrow=none;html=1;rounded=0;entryX=0.357;entryY=1.05;entryDx=0;entryDy=0;entryPerimeter=0;exitX=0.75;exitY=0;exitDx=0;exitDy=0;" edge="1" parent="1" source="CXuEt58X6KqpJVew96X_-2" target="CXuEt58X6KqpJVew96X_-19">
          <mxGeometry relative="1" as="geometry">
            <mxPoint x="-82.5" y="-774" as="sourcePoint" />
            <mxPoint x="77.5" y="-774" as="targetPoint" />
          </mxGeometry>
        </mxCell>
        <mxCell id="CXuEt58X6KqpJVew96X_-22" value="" style="endArrow=none;html=1;rounded=0;entryX=0.5;entryY=1;entryDx=0;entryDy=0;" edge="1" parent="1" source="CXuEt58X6KqpJVew96X_-2" target="CXuEt58X6KqpJVew96X_-9">
          <mxGeometry relative="1" as="geometry">
            <mxPoint x="-82.5" y="-774" as="sourcePoint" />
            <mxPoint x="77.5" y="-774" as="targetPoint" />
          </mxGeometry>
        </mxCell>
        <mxCell id="CXuEt58X6KqpJVew96X_-23" value="" style="endArrow=none;html=1;rounded=0;entryX=0.5;entryY=0;entryDx=0;entryDy=0;" edge="1" parent="1" source="CXuEt58X6KqpJVew96X_-8" target="CXuEt58X6KqpJVew96X_-3">
          <mxGeometry relative="1" as="geometry">
            <mxPoint x="273" y="-1049" as="sourcePoint" />
            <mxPoint x="433" y="-1049" as="targetPoint" />
            <Array as="points">
              <mxPoint x="583" y="-977" />
            </Array>
          </mxGeometry>
        </mxCell>
        <mxCell id="CXuEt58X6KqpJVew96X_-24" value="Address" style="ellipse;whiteSpace=wrap;html=1;align=center;" vertex="1" parent="1">
          <mxGeometry x="503" y="-1027" width="70" height="45" as="geometry" />
        </mxCell>
        <mxCell id="CXuEt58X6KqpJVew96X_-25" value="City" style="ellipse;whiteSpace=wrap;html=1;align=center;" vertex="1" parent="1">
          <mxGeometry x="463" y="-1071" width="50" height="31" as="geometry" />
        </mxCell>
        <mxCell id="CXuEt58X6KqpJVew96X_-26" value="Street" style="ellipse;whiteSpace=wrap;html=1;align=center;" vertex="1" parent="1">
          <mxGeometry x="563" y="-1057" width="50" height="30" as="geometry" />
        </mxCell>
        <mxCell id="CXuEt58X6KqpJVew96X_-27" value="" style="endArrow=none;html=1;rounded=0;entryX=0;entryY=0;entryDx=0;entryDy=0;exitX=1;exitY=1;exitDx=0;exitDy=0;" edge="1" parent="1" source="CXuEt58X6KqpJVew96X_-25" target="CXuEt58X6KqpJVew96X_-24">
          <mxGeometry relative="1" as="geometry">
            <mxPoint x="273" y="-1049" as="sourcePoint" />
            <mxPoint x="433" y="-1049" as="targetPoint" />
          </mxGeometry>
        </mxCell>
        <mxCell id="CXuEt58X6KqpJVew96X_-28" value="" style="endArrow=none;html=1;rounded=0;entryX=1;entryY=0;entryDx=0;entryDy=0;exitX=0.32;exitY=0.933;exitDx=0;exitDy=0;exitPerimeter=0;" edge="1" parent="1" source="CXuEt58X6KqpJVew96X_-26" target="CXuEt58X6KqpJVew96X_-24">
          <mxGeometry relative="1" as="geometry">
            <mxPoint x="273" y="-1049" as="sourcePoint" />
            <mxPoint x="433" y="-1049" as="targetPoint" />
          </mxGeometry>
        </mxCell>
        <mxCell id="CXuEt58X6KqpJVew96X_-29" value="" style="endArrow=none;html=1;rounded=0;entryX=0.25;entryY=0;entryDx=0;entryDy=0;exitX=0.5;exitY=1;exitDx=0;exitDy=0;" edge="1" parent="1" source="CXuEt58X6KqpJVew96X_-24" target="CXuEt58X6KqpJVew96X_-3">
          <mxGeometry relative="1" as="geometry">
            <mxPoint x="233" y="-1049" as="sourcePoint" />
            <mxPoint x="393" y="-1049" as="targetPoint" />
          </mxGeometry>
        </mxCell>
        <mxCell id="CXuEt58X6KqpJVew96X_-30" value="PName" style="ellipse;whiteSpace=wrap;html=1;align=center;" vertex="1" parent="1">
          <mxGeometry x="65" y="-683" width="50" height="31" as="geometry" />
        </mxCell>
        <mxCell id="CXuEt58X6KqpJVew96X_-31" value="Stock" style="ellipse;whiteSpace=wrap;html=1;align=center;" vertex="1" parent="1">
          <mxGeometry x="65" y="-563" width="50" height="31" as="geometry" />
        </mxCell>
        <mxCell id="CXuEt58X6KqpJVew96X_-34" value="PID" style="ellipse;whiteSpace=wrap;html=1;align=center;fontStyle=4;" vertex="1" parent="1">
          <mxGeometry x="56" y="-625" width="55" height="30" as="geometry" />
        </mxCell>
        <mxCell id="CXuEt58X6KqpJVew96X_-35" value="" style="endArrow=none;html=1;rounded=0;entryX=0;entryY=0.5;entryDx=0;entryDy=0;exitX=1;exitY=0.5;exitDx=0;exitDy=0;" edge="1" parent="1" source="CXuEt58X6KqpJVew96X_-34" target="CXuEt58X6KqpJVew96X_-6">
          <mxGeometry relative="1" as="geometry">
            <mxPoint x="330" y="-813" as="sourcePoint" />
            <mxPoint x="490" y="-813" as="targetPoint" />
          </mxGeometry>
        </mxCell>
        <mxCell id="CXuEt58X6KqpJVew96X_-38" value="" style="endArrow=none;html=1;rounded=0;entryX=0.25;entryY=0;entryDx=0;entryDy=0;exitX=1;exitY=1;exitDx=0;exitDy=0;" edge="1" parent="1" source="CXuEt58X6KqpJVew96X_-30" target="CXuEt58X6KqpJVew96X_-6">
          <mxGeometry relative="1" as="geometry">
            <mxPoint x="330" y="-813" as="sourcePoint" />
            <mxPoint x="490" y="-813" as="targetPoint" />
          </mxGeometry>
        </mxCell>
        <mxCell id="CXuEt58X6KqpJVew96X_-39" value="" style="endArrow=none;html=1;rounded=0;entryX=0.09;entryY=1.075;entryDx=0;entryDy=0;entryPerimeter=0;" edge="1" parent="1" source="CXuEt58X6KqpJVew96X_-31" target="CXuEt58X6KqpJVew96X_-6">
          <mxGeometry relative="1" as="geometry">
            <mxPoint x="330" y="-813" as="sourcePoint" />
            <mxPoint x="490" y="-813" as="targetPoint" />
          </mxGeometry>
        </mxCell>
        <mxCell id="CXuEt58X6KqpJVew96X_-40" value="NOorder" style="ellipse;whiteSpace=wrap;html=1;align=center;fontStyle=4;" vertex="1" parent="1">
          <mxGeometry x="635" y="-689" width="80" height="30" as="geometry" />
        </mxCell>
        <mxCell id="CXuEt58X6KqpJVew96X_-42" value="PName" style="ellipse;whiteSpace=wrap;html=1;align=center;" vertex="1" parent="1">
          <mxGeometry x="782" y="-661" width="50" height="31" as="geometry" />
        </mxCell>
        <mxCell id="CXuEt58X6KqpJVew96X_-43" value="" style="endArrow=none;html=1;rounded=0;entryX=0.33;entryY=-0.004;entryDx=0;entryDy=0;exitX=0.963;exitY=0.767;exitDx=0;exitDy=0;exitPerimeter=0;entryPerimeter=0;" edge="1" parent="1" source="CXuEt58X6KqpJVew96X_-40" target="CXuEt58X6KqpJVew96X_-5">
          <mxGeometry relative="1" as="geometry">
            <mxPoint x="724" y="-750" as="sourcePoint" />
            <mxPoint x="884" y="-750" as="targetPoint" />
          </mxGeometry>
        </mxCell>
        <mxCell id="CXuEt58X6KqpJVew96X_-44" value="" style="endArrow=none;html=1;rounded=0;exitX=0;exitY=1;exitDx=0;exitDy=0;" edge="1" parent="1" source="CXuEt58X6KqpJVew96X_-42" target="CXuEt58X6KqpJVew96X_-5">
          <mxGeometry relative="1" as="geometry">
            <mxPoint x="724" y="-750" as="sourcePoint" />
            <mxPoint x="884" y="-750" as="targetPoint" />
          </mxGeometry>
        </mxCell>
        <mxCell id="CXuEt58X6KqpJVew96X_-45" value="Total" style="ellipse;whiteSpace=wrap;html=1;align=center;dashed=1;" vertex="1" parent="1">
          <mxGeometry x="767" y="-570" width="80" height="30" as="geometry" />
        </mxCell>
        <mxCell id="CXuEt58X6KqpJVew96X_-46" value="Price" style="ellipse;whiteSpace=wrap;html=1;align=center;" vertex="1" parent="1">
          <mxGeometry x="150" y="-693" width="50" height="31" as="geometry" />
        </mxCell>
        <mxCell id="CXuEt58X6KqpJVew96X_-47" value="" style="endArrow=none;html=1;rounded=0;entryX=0.5;entryY=1;entryDx=0;entryDy=0;" edge="1" parent="1" target="CXuEt58X6KqpJVew96X_-46">
          <mxGeometry relative="1" as="geometry">
            <mxPoint x="180" y="-633" as="sourcePoint" />
            <mxPoint x="380" y="-563" as="targetPoint" />
          </mxGeometry>
        </mxCell>
        <mxCell id="CXuEt58X6KqpJVew96X_-48" value="Price" style="ellipse;whiteSpace=wrap;html=1;align=center;" vertex="1" parent="1">
          <mxGeometry x="732" y="-690" width="50" height="31" as="geometry" />
        </mxCell>
        <mxCell id="CXuEt58X6KqpJVew96X_-49" value="" style="endArrow=none;html=1;rounded=0;entryX=0.75;entryY=0;entryDx=0;entryDy=0;exitX=0.66;exitY=0.935;exitDx=0;exitDy=0;exitPerimeter=0;" edge="1" parent="1" source="CXuEt58X6KqpJVew96X_-48" target="CXuEt58X6KqpJVew96X_-5">
          <mxGeometry relative="1" as="geometry">
            <mxPoint x="724" y="-750" as="sourcePoint" />
            <mxPoint x="884" y="-750" as="targetPoint" />
          </mxGeometry>
        </mxCell>
        <mxCell id="CXuEt58X6KqpJVew96X_-50" value="" style="endArrow=none;html=1;rounded=0;exitX=0.042;exitY=0.728;exitDx=0;exitDy=0;exitPerimeter=0;entryX=1;entryY=0.75;entryDx=0;entryDy=0;" edge="1" parent="1" source="CXuEt58X6KqpJVew96X_-45" target="CXuEt58X6KqpJVew96X_-5">
          <mxGeometry relative="1" as="geometry">
            <mxPoint x="724" y="-750" as="sourcePoint" />
            <mxPoint x="722" y="-597" as="targetPoint" />
          </mxGeometry>
        </mxCell>
        <mxCell id="CXuEt58X6KqpJVew96X_-52" value="NOorder" style="ellipse;whiteSpace=wrap;html=1;align=center;fontStyle=4;" vertex="1" parent="1">
          <mxGeometry x="1119" y="-563.5" width="80" height="30" as="geometry" />
        </mxCell>
        <mxCell id="CXuEt58X6KqpJVew96X_-53" value="CID" style="ellipse;whiteSpace=wrap;html=1;align=center;" vertex="1" parent="1">
          <mxGeometry x="941" y="-533.5" width="50" height="30" as="geometry" />
        </mxCell>
        <mxCell id="CXuEt58X6KqpJVew96X_-54" value="" style="endArrow=none;html=1;rounded=0;exitX=0;exitY=1;exitDx=0;exitDy=0;entryX=1;entryY=0;entryDx=0;entryDy=0;" edge="1" parent="1" source="CXuEt58X6KqpJVew96X_-4" target="CXuEt58X6KqpJVew96X_-53">
          <mxGeometry relative="1" as="geometry">
            <mxPoint x="964" y="-639" as="sourcePoint" />
            <mxPoint x="981" y="-512.5" as="targetPoint" />
          </mxGeometry>
        </mxCell>
        <mxCell id="CXuEt58X6KqpJVew96X_-55" value="" style="endArrow=none;html=1;rounded=0;exitX=1;exitY=0.5;exitDx=0;exitDy=0;" edge="1" parent="1" source="CXuEt58X6KqpJVew96X_-4" target="CXuEt58X6KqpJVew96X_-52">
          <mxGeometry relative="1" as="geometry">
            <mxPoint x="964" y="-639" as="sourcePoint" />
            <mxPoint x="1150.56" y="-559.5400000000002" as="targetPoint" />
          </mxGeometry>
        </mxCell>
        <mxCell id="CXuEt58X6KqpJVew96X_-58" value="Total" style="ellipse;whiteSpace=wrap;html=1;align=center;dashed=1;" vertex="1" parent="1">
          <mxGeometry x="1034" y="-529" width="80" height="30" as="geometry" />
        </mxCell>
        <mxCell id="CXuEt58X6KqpJVew96X_-60" value="" style="endArrow=none;html=1;rounded=0;exitX=0.5;exitY=0;exitDx=0;exitDy=0;" edge="1" parent="1" source="CXuEt58X6KqpJVew96X_-58" target="CXuEt58X6KqpJVew96X_-4">
          <mxGeometry relative="1" as="geometry">
            <mxPoint x="874" y="-549" as="sourcePoint" />
            <mxPoint x="1034" y="-549" as="targetPoint" />
          </mxGeometry>
        </mxCell>
        <mxCell id="CXuEt58X6KqpJVew96X_-64" value="Review" style="shape=ext;margin=3;double=1;whiteSpace=wrap;html=1;align=center;" vertex="1" parent="1">
          <mxGeometry x="138.75" y="-380" width="100" height="40" as="geometry" />
        </mxCell>
        <mxCell id="CXuEt58X6KqpJVew96X_-68" value="&lt;span style=&quot;border-bottom: 1px dotted&quot;&gt;CName&lt;/span&gt;" style="ellipse;whiteSpace=wrap;html=1;align=center;" vertex="1" parent="1">
          <mxGeometry x="309" y="-320" width="100" height="40" as="geometry" />
        </mxCell>
        <mxCell id="CXuEt58X6KqpJVew96X_-69" value="&lt;span style=&quot;border-bottom: 1px dotted&quot;&gt;Rating&lt;/span&gt;" style="ellipse;whiteSpace=wrap;html=1;align=center;" vertex="1" parent="1">
          <mxGeometry x="200" y="-270" width="100" height="40" as="geometry" />
        </mxCell>
        <mxCell id="CXuEt58X6KqpJVew96X_-70" value="&lt;span style=&quot;border-bottom: 1px dotted&quot;&gt;Comment&lt;/span&gt;" style="ellipse;whiteSpace=wrap;html=1;align=center;" vertex="1" parent="1">
          <mxGeometry x="72.5" y="-260" width="100" height="40" as="geometry" />
        </mxCell>
        <mxCell id="CXuEt58X6KqpJVew96X_-71" value="" style="endArrow=none;html=1;rounded=0;entryX=0;entryY=1;entryDx=0;entryDy=0;" edge="1" parent="1" source="CXuEt58X6KqpJVew96X_-70" target="CXuEt58X6KqpJVew96X_-64">
          <mxGeometry relative="1" as="geometry">
            <mxPoint x="-71.25" y="-330" as="sourcePoint" />
            <mxPoint x="88.75" y="-330" as="targetPoint" />
          </mxGeometry>
        </mxCell>
        <mxCell id="CXuEt58X6KqpJVew96X_-72" value="" style="endArrow=none;html=1;rounded=0;" edge="1" parent="1" source="CXuEt58X6KqpJVew96X_-64" target="CXuEt58X6KqpJVew96X_-69">
          <mxGeometry relative="1" as="geometry">
            <mxPoint x="-71.25" y="-330" as="sourcePoint" />
            <mxPoint x="88.75" y="-330" as="targetPoint" />
          </mxGeometry>
        </mxCell>
        <mxCell id="CXuEt58X6KqpJVew96X_-73" value="" style="endArrow=none;html=1;rounded=0;entryX=0.083;entryY=0.254;entryDx=0;entryDy=0;entryPerimeter=0;" edge="1" parent="1" source="CXuEt58X6KqpJVew96X_-64" target="CXuEt58X6KqpJVew96X_-68">
          <mxGeometry relative="1" as="geometry">
            <mxPoint x="-71.25" y="-330" as="sourcePoint" />
            <mxPoint x="88.75" y="-330" as="targetPoint" />
          </mxGeometry>
        </mxCell>
        <mxCell id="CXuEt58X6KqpJVew96X_-74" value="Has" style="shape=rhombus;perimeter=rhombusPerimeter;whiteSpace=wrap;html=1;align=center;" vertex="1" parent="1">
          <mxGeometry x="192.5" y="-820" width="70" height="60" as="geometry" />
        </mxCell>
        <mxCell id="CXuEt58X6KqpJVew96X_-77" value="" style="endArrow=none;html=1;rounded=0;" edge="1" parent="1">
          <mxGeometry relative="1" as="geometry">
            <mxPoint x="404.58" y="-1078" as="sourcePoint" />
            <mxPoint x="404.58" y="-1008" as="targetPoint" />
          </mxGeometry>
        </mxCell>
        <mxCell id="CXuEt58X6KqpJVew96X_-78" value="" style="endArrow=none;html=1;rounded=0;entryX=0;entryY=0.5;entryDx=0;entryDy=0;" edge="1" parent="1">
          <mxGeometry relative="1" as="geometry">
            <mxPoint x="405" y="-1010" as="sourcePoint" />
            <mxPoint x="525" y="-938" as="targetPoint" />
            <Array as="points">
              <mxPoint x="442" y="-960" />
              <mxPoint x="502" y="-960" />
            </Array>
          </mxGeometry>
        </mxCell>
        <mxCell id="CXuEt58X6KqpJVew96X_-80" value="" style="endArrow=none;html=1;rounded=0;exitX=1;exitY=0.5;exitDx=0;exitDy=0;" edge="1" parent="1" source="CXuEt58X6KqpJVew96X_-2">
          <mxGeometry relative="1" as="geometry">
            <mxPoint x="282.5" y="-945" as="sourcePoint" />
            <mxPoint x="405" y="-1011" as="targetPoint" />
            <Array as="points">
              <mxPoint x="320" y="-960" />
              <mxPoint x="362" y="-955" />
            </Array>
          </mxGeometry>
        </mxCell>
        <mxCell id="CXuEt58X6KqpJVew96X_-86" value="" style="endArrow=none;html=1;rounded=0;entryX=0.5;entryY=1;entryDx=0;entryDy=0;exitX=0.5;exitY=0;exitDx=0;exitDy=0;" edge="1" parent="1" source="CXuEt58X6KqpJVew96X_-74" target="CXuEt58X6KqpJVew96X_-2">
          <mxGeometry relative="1" as="geometry">
            <mxPoint x="380" y="-790" as="sourcePoint" />
            <mxPoint x="540" y="-790" as="targetPoint" />
          </mxGeometry>
        </mxCell>
        <mxCell id="CXuEt58X6KqpJVew96X_-87" value="1" style="resizable=0;html=1;whiteSpace=wrap;align=right;verticalAlign=bottom;" connectable="0" vertex="1" parent="CXuEt58X6KqpJVew96X_-86">
          <mxGeometry x="1" relative="1" as="geometry" />
        </mxCell>
        <mxCell id="CXuEt58X6KqpJVew96X_-88" value="Include" style="shape=rhombus;perimeter=rhombusPerimeter;whiteSpace=wrap;html=1;align=center;" vertex="1" parent="1">
          <mxGeometry x="409" y="-641" width="70" height="60" as="geometry" />
        </mxCell>
        <mxCell id="CXuEt58X6KqpJVew96X_-92" value="" style="endArrow=none;html=1;rounded=0;" edge="1" parent="1">
          <mxGeometry relative="1" as="geometry">
            <mxPoint x="480" y="-610" as="sourcePoint" />
            <mxPoint x="632" y="-610.42" as="targetPoint" />
          </mxGeometry>
        </mxCell>
        <mxCell id="CXuEt58X6KqpJVew96X_-94" value="N" style="resizable=0;html=1;whiteSpace=wrap;align=right;verticalAlign=bottom;" connectable="0" vertex="1" parent="CXuEt58X6KqpJVew96X_-92">
          <mxGeometry x="1" relative="1" as="geometry" />
        </mxCell>
        <mxCell id="CXuEt58X6KqpJVew96X_-96" value="" style="shape=link;html=1;rounded=0;exitX=1;exitY=0.5;exitDx=0;exitDy=0;" edge="1" parent="1" source="CXuEt58X6KqpJVew96X_-6">
          <mxGeometry relative="1" as="geometry">
            <mxPoint x="249" y="-610.42" as="sourcePoint" />
            <mxPoint x="409" y="-610.42" as="targetPoint" />
          </mxGeometry>
        </mxCell>
        <mxCell id="CXuEt58X6KqpJVew96X_-97" value="M" style="resizable=0;html=1;whiteSpace=wrap;align=left;verticalAlign=bottom;" connectable="0" vertex="1" parent="CXuEt58X6KqpJVew96X_-96">
          <mxGeometry x="-1" relative="1" as="geometry" />
        </mxCell>
        <mxCell id="CXuEt58X6KqpJVew96X_-98" value="" style="resizable=0;html=1;whiteSpace=wrap;align=right;verticalAlign=bottom;" connectable="0" vertex="1" parent="CXuEt58X6KqpJVew96X_-96">
          <mxGeometry x="1" relative="1" as="geometry" />
        </mxCell>
        <mxCell id="CXuEt58X6KqpJVew96X_-99" value="order" style="shape=rhombus;perimeter=rhombusPerimeter;whiteSpace=wrap;html=1;align=center;" vertex="1" parent="1">
          <mxGeometry x="540" y="-810" width="67" height="60" as="geometry" />
        </mxCell>
        <mxCell id="CXuEt58X6KqpJVew96X_-100" value="" style="endArrow=none;html=1;rounded=0;entryX=0.5;entryY=1;entryDx=0;entryDy=0;exitX=0.5;exitY=0;exitDx=0;exitDy=0;" edge="1" parent="1" source="CXuEt58X6KqpJVew96X_-99" target="CXuEt58X6KqpJVew96X_-3">
          <mxGeometry relative="1" as="geometry">
            <mxPoint x="370" y="-740" as="sourcePoint" />
            <mxPoint x="530" y="-740" as="targetPoint" />
          </mxGeometry>
        </mxCell>
        <mxCell id="CXuEt58X6KqpJVew96X_-101" value="1" style="resizable=0;html=1;whiteSpace=wrap;align=right;verticalAlign=bottom;" connectable="0" vertex="1" parent="CXuEt58X6KqpJVew96X_-100">
          <mxGeometry x="1" relative="1" as="geometry" />
        </mxCell>
        <mxCell id="CXuEt58X6KqpJVew96X_-102" value="" style="endArrow=none;html=1;rounded=0;exitX=0.5;exitY=1;exitDx=0;exitDy=0;entryX=0;entryY=0;entryDx=0;entryDy=0;" edge="1" parent="1" target="CXuEt58X6KqpJVew96X_-5">
          <mxGeometry relative="1" as="geometry">
            <mxPoint x="573" y="-750" as="sourcePoint" />
            <mxPoint x="630" y="-630" as="targetPoint" />
            <Array as="points">
              <mxPoint x="573" y="-680" />
              <mxPoint x="600" y="-670" />
              <mxPoint x="600" y="-650" />
            </Array>
          </mxGeometry>
        </mxCell>
        <mxCell id="CXuEt58X6KqpJVew96X_-103" value="N" style="resizable=0;html=1;whiteSpace=wrap;align=right;verticalAlign=bottom;" connectable="0" vertex="1" parent="CXuEt58X6KqpJVew96X_-102">
          <mxGeometry x="1" relative="1" as="geometry" />
        </mxCell>
        <mxCell id="CXuEt58X6KqpJVew96X_-104" value="pay" style="shape=rhombus;perimeter=rhombusPerimeter;whiteSpace=wrap;html=1;align=center;" vertex="1" parent="1">
          <mxGeometry x="1019" y="-968" width="70" height="60" as="geometry" />
        </mxCell>
        <mxCell id="CXuEt58X6KqpJVew96X_-105" value="" style="endArrow=none;html=1;rounded=0;entryX=1;entryY=0.5;entryDx=0;entryDy=0;exitX=0;exitY=0.5;exitDx=0;exitDy=0;" edge="1" parent="1" source="CXuEt58X6KqpJVew96X_-104" target="CXuEt58X6KqpJVew96X_-3">
          <mxGeometry relative="1" as="geometry">
            <mxPoint x="735" y="-820" as="sourcePoint" />
            <mxPoint x="734" y="-927" as="targetPoint" />
          </mxGeometry>
        </mxCell>
        <mxCell id="CXuEt58X6KqpJVew96X_-106" value="1" style="resizable=0;html=1;whiteSpace=wrap;align=right;verticalAlign=bottom;" connectable="0" vertex="1" parent="CXuEt58X6KqpJVew96X_-105">
          <mxGeometry x="1" relative="1" as="geometry" />
        </mxCell>
        <mxCell id="CXuEt58X6KqpJVew96X_-107" value="" style="shape=link;html=1;rounded=0;exitX=0.5;exitY=1;exitDx=0;exitDy=0;entryX=0.905;entryY=0.067;entryDx=0;entryDy=0;entryPerimeter=0;" edge="1" parent="1" source="CXuEt58X6KqpJVew96X_-74">
          <mxGeometry relative="1" as="geometry">
            <mxPoint x="230.5" y="-762.0000000000002" as="sourcePoint" />
            <mxPoint x="225.49999999999977" y="-629.3200000000002" as="targetPoint" />
          </mxGeometry>
        </mxCell>
        <mxCell id="CXuEt58X6KqpJVew96X_-108" value="N" style="resizable=0;html=1;whiteSpace=wrap;align=right;verticalAlign=bottom;" connectable="0" vertex="1" parent="CXuEt58X6KqpJVew96X_-107">
          <mxGeometry x="1" relative="1" as="geometry" />
        </mxCell>
        <mxCell id="CXuEt58X6KqpJVew96X_-112" value="" style="endArrow=none;html=1;rounded=0;entryX=0.5;entryY=0;entryDx=0;entryDy=0;exitX=0.5;exitY=1;exitDx=0;exitDy=0;" edge="1" parent="1" source="CXuEt58X6KqpJVew96X_-104" target="CXuEt58X6KqpJVew96X_-4">
          <mxGeometry relative="1" as="geometry">
            <mxPoint x="720" y="-790" as="sourcePoint" />
            <mxPoint x="880" y="-790" as="targetPoint" />
          </mxGeometry>
        </mxCell>
        <mxCell id="CXuEt58X6KqpJVew96X_-113" value="N" style="resizable=0;html=1;whiteSpace=wrap;align=right;verticalAlign=bottom;" connectable="0" vertex="1" parent="CXuEt58X6KqpJVew96X_-112">
          <mxGeometry x="1" relative="1" as="geometry" />
        </mxCell>
        <mxCell id="CXuEt58X6KqpJVew96X_-114" value="has" style="shape=rhombus;perimeter=rhombusPerimeter;whiteSpace=wrap;html=1;align=center;" vertex="1" parent="1">
          <mxGeometry x="847" y="-640" width="70" height="60" as="geometry" />
        </mxCell>
        <mxCell id="CXuEt58X6KqpJVew96X_-115" value="" style="endArrow=none;html=1;rounded=0;entryX=1;entryY=0.5;entryDx=0;entryDy=0;exitX=0;exitY=0.5;exitDx=0;exitDy=0;" edge="1" parent="1" source="CXuEt58X6KqpJVew96X_-114" target="CXuEt58X6KqpJVew96X_-5">
          <mxGeometry relative="1" as="geometry">
            <mxPoint x="730" y="-630" as="sourcePoint" />
            <mxPoint x="890" y="-630" as="targetPoint" />
          </mxGeometry>
        </mxCell>
        <mxCell id="CXuEt58X6KqpJVew96X_-116" value="1" style="resizable=0;html=1;whiteSpace=wrap;align=right;verticalAlign=bottom;" connectable="0" vertex="1" parent="CXuEt58X6KqpJVew96X_-115">
          <mxGeometry x="1" relative="1" as="geometry" />
        </mxCell>
        <mxCell id="CXuEt58X6KqpJVew96X_-117" value="" style="endArrow=none;html=1;rounded=0;exitX=1;exitY=0.5;exitDx=0;exitDy=0;entryX=0;entryY=0.5;entryDx=0;entryDy=0;" edge="1" parent="1" source="CXuEt58X6KqpJVew96X_-114" target="CXuEt58X6KqpJVew96X_-4">
          <mxGeometry relative="1" as="geometry">
            <mxPoint x="920" y="-611" as="sourcePoint" />
            <mxPoint x="1004" y="-611.42" as="targetPoint" />
          </mxGeometry>
        </mxCell>
        <mxCell id="CXuEt58X6KqpJVew96X_-118" value="N" style="resizable=0;html=1;whiteSpace=wrap;align=right;verticalAlign=bottom;" connectable="0" vertex="1" parent="CXuEt58X6KqpJVew96X_-117">
          <mxGeometry x="1" relative="1" as="geometry" />
        </mxCell>
        <mxCell id="CXuEt58X6KqpJVew96X_-119" value="has" style="shape=rhombus;perimeter=rhombusPerimeter;whiteSpace=wrap;html=1;align=center;" vertex="1" parent="1">
          <mxGeometry x="152.5" y="-503.5" width="70" height="60" as="geometry" />
        </mxCell>
        <mxCell id="CXuEt58X6KqpJVew96X_-120" value="" style="endArrow=none;html=1;rounded=0;entryX=0.5;entryY=0;entryDx=0;entryDy=0;exitX=0.563;exitY=0.983;exitDx=0;exitDy=0;exitPerimeter=0;" edge="1" parent="1" source="CXuEt58X6KqpJVew96X_-6" target="CXuEt58X6KqpJVew96X_-119">
          <mxGeometry relative="1" as="geometry">
            <mxPoint x="170" y="-563" as="sourcePoint" />
            <mxPoint x="330" y="-563" as="targetPoint" />
          </mxGeometry>
        </mxCell>
        <mxCell id="CXuEt58X6KqpJVew96X_-121" value="M" style="resizable=0;html=1;whiteSpace=wrap;align=left;verticalAlign=bottom;" connectable="0" vertex="1" parent="CXuEt58X6KqpJVew96X_-120">
          <mxGeometry x="-1" relative="1" as="geometry" />
        </mxCell>
        <mxCell id="CXuEt58X6KqpJVew96X_-122" value="" style="resizable=0;html=1;whiteSpace=wrap;align=right;verticalAlign=bottom;" connectable="0" vertex="1" parent="CXuEt58X6KqpJVew96X_-120">
          <mxGeometry x="1" relative="1" as="geometry" />
        </mxCell>
        <mxCell id="CXuEt58X6KqpJVew96X_-123" value="" style="shape=link;html=1;rounded=0;width=-3.333333333333333;entryX=0.5;entryY=0;entryDx=0;entryDy=0;exitX=0.5;exitY=1;exitDx=0;exitDy=0;" edge="1" parent="1" source="CXuEt58X6KqpJVew96X_-119" target="CXuEt58X6KqpJVew96X_-64">
          <mxGeometry relative="1" as="geometry">
            <mxPoint x="323" y="-470" as="sourcePoint" />
            <mxPoint x="483" y="-470" as="targetPoint" />
          </mxGeometry>
        </mxCell>
        <mxCell id="CXuEt58X6KqpJVew96X_-124" value="" style="resizable=0;html=1;whiteSpace=wrap;align=left;verticalAlign=bottom;" connectable="0" vertex="1" parent="CXuEt58X6KqpJVew96X_-123">
          <mxGeometry x="-1" relative="1" as="geometry" />
        </mxCell>
        <mxCell id="CXuEt58X6KqpJVew96X_-125" value="N" style="resizable=0;html=1;whiteSpace=wrap;align=right;verticalAlign=bottom;" connectable="0" vertex="1" parent="CXuEt58X6KqpJVew96X_-123">
          <mxGeometry x="1" relative="1" as="geometry" />
        </mxCell>
        <mxCell id="CXuEt58X6KqpJVew96X_-126" value="comment" style="shape=rhombus;perimeter=rhombusPerimeter;whiteSpace=wrap;html=1;align=center;" vertex="1" parent="1">
          <mxGeometry y="-1270" width="72.5" height="80" as="geometry" />
        </mxCell>
        <mxCell id="CXuEt58X6KqpJVew96X_-127" value="" style="endArrow=none;html=1;rounded=0;exitX=1;exitY=0;exitDx=0;exitDy=0;" edge="1" parent="1" source="CXuEt58X6KqpJVew96X_-126">
          <mxGeometry relative="1" as="geometry">
            <mxPoint x="30" y="-1330" as="sourcePoint" />
            <mxPoint x="620" y="-960" as="targetPoint" />
            <Array as="points">
              <mxPoint x="160" y="-1280" />
              <mxPoint x="310" y="-1280" />
              <mxPoint x="600" y="-1280" />
              <mxPoint x="600" y="-1210" />
              <mxPoint x="710" y="-1210" />
              <mxPoint x="710" y="-960" />
            </Array>
          </mxGeometry>
        </mxCell>
        <mxCell id="CXuEt58X6KqpJVew96X_-129" value="1" style="resizable=0;html=1;whiteSpace=wrap;align=right;verticalAlign=bottom;" connectable="0" vertex="1" parent="CXuEt58X6KqpJVew96X_-127">
          <mxGeometry x="1" relative="1" as="geometry" />
        </mxCell>
        <mxCell id="CXuEt58X6KqpJVew96X_-130" value="" style="shape=link;html=1;rounded=0;exitX=0;exitY=0.5;exitDx=0;exitDy=0;" edge="1" parent="1" source="CXuEt58X6KqpJVew96X_-126">
          <mxGeometry relative="1" as="geometry">
            <mxPoint y="-1220" as="sourcePoint" />
            <mxPoint x="138.75" y="-360.42" as="targetPoint" />
            <Array as="points">
              <mxPoint y="-360" />
            </Array>
          </mxGeometry>
        </mxCell>
        <mxCell id="CXuEt58X6KqpJVew96X_-131" value="N" style="resizable=0;html=1;whiteSpace=wrap;align=right;verticalAlign=bottom;" connectable="0" vertex="1" parent="CXuEt58X6KqpJVew96X_-130">
          <mxGeometry x="1" relative="1" as="geometry" />
        </mxCell>
      </root>
    </mxGraphModel>
  </diagram>
</mxfile>
